<svg height="48pt" viewBox="0 0 48 48" width="48pt" xmlns="http://www.w3.org/2000/svg" xmlns:xlink="http://www.w3.org/1999/xlink"><linearGradient id="a" gradientTransform="scale(48 47.249)" gradientUnits="userSpaceOnUse" x1="-.000038" x2=".999962" y1=".5" y2=".5"><stop offset="0" stop-color="#d300dc"/><stop offset="1" stop-color="#8700ff"/></linearGradient><path d="m18.81 43.32c1.065.287 1.697 1.385 1.41 2.45-.287 1.065-1.385 1.697-2.45 1.41-5.1-1.37-9.61-4.39-12.82-8.58s-4.95-9.32-4.95-14.6c0-6.36 2.53-12.47 7.03-16.97s10.61-7.03 16.97-7.03 12.47 2.53 16.97 7.03 7.03 10.61 7.03 16.97c0 5.26-1.73 10.37-4.91 14.55-3.19 4.18-7.66 7.2-12.73 8.6-1.065.293-2.167-.335-2.46-1.4-.293-1.065.335-2.167 1.4-2.46 4.22-1.16 7.95-3.68 10.61-7.16 2.65-3.49 4.09-7.75 4.09-12.13 0-5.3-2.11-10.39-5.86-14.14s-8.84-5.86-14.14-5.86-10.39 2.11-14.14 5.86-5.86 8.84-5.86 14.14c0 4.4 1.45 8.68 4.13 12.17 2.67 3.49 6.43 6.01 10.68 7.15zm-.783-6.357s1.681.119 3.843-.071c.875-.077 4.2-.404 6.685-.949 0 0 3.03-.649 4.652-1.246 1.696-.625 2.619-1.156 3.034-1.908-.018-.154.128-.7-.654-1.028-2-.839-4.319-.687-8.909-.784-5.09-.175-6.783-1.027-7.685-1.713-.865-.696-.43-2.622 3.276-4.319 1.867-.903 9.185-2.57 9.185-2.57-2.465-1.218-7.06-3.36-8.005-3.822-.829-.406-2.155-1.016-2.442-1.755-.326-.71.77-1.321 1.381-1.496 1.971-.568 4.753-.921 7.285-.961 1.273-.02 1.479-.102 1.479-.102 1.756-.291 2.913-1.493 2.431-3.395-.433-1.943-2.713-3.084-4.88-2.689-2.041.372-6.96 1.801-6.96 1.801 6.08-.053 7.098.049 7.552.684.269.376-.122.89-1.743 1.155-1.765.288-5.435.636-5.435.636-3.52.209-6 .223-6.744 1.797-.486 1.029.518 1.939.958 2.508 1.86 2.068 4.546 3.183 6.275 4.005.651.309 2.559.892 2.559.892-5.609-.308-9.655 1.414-12.029 3.397-2.684 2.483-1.497 5.443 4.003 7.266 3.249 1.076 4.86 1.582 9.705 1.146 2.854-.154 3.304-.062 3.333.172.04.33-3.17 1.149-4.047 1.401-2.229.643-8.074 1.942-8.103 1.948z" fill="url(#a)" fill-rule="evenodd"/></svg>